<?xml version="1.0"?>
<svg xmlns="http://www.w3.org/2000/svg" xmlns:xlink="http://www.w3.org/1999/xlink" version="1.1" viewBox="0 0 224 224" width="500px" height="500px"><g fill="none" fill-rule="nonzero" stroke="none" stroke-width="1" stroke-linecap="butt" stroke-linejoin="miter" stroke-miterlimit="10" stroke-dasharray="" stroke-dashoffset="0" font-family="none" font-weight="none" font-size="none" text-anchor="none" style="mix-blend-mode: normal"><path d="M0,224v-224h224v224z" fill="#624693"/><g fill="#ffffff"><path d="M71.68,13.44c-32.11047,0 -58.24,26.12953 -58.24,58.24v80.64c0,32.11047 26.12953,58.24 58.24,58.24h80.64c32.11047,0 58.24,-26.12953 58.24,-58.24v-80.64c0,-32.11047 -26.12953,-58.24 -58.24,-58.24zM71.68,22.4h80.64c27.26745,0 49.28,22.01255 49.28,49.28v80.64c0,27.26745 -22.01255,49.28 -49.28,49.28h-80.64c-27.26745,0 -49.28,-22.01255 -49.28,-49.28v-80.64c0,-27.26745 22.01255,-49.28 49.28,-49.28zM165.76,49.28c-4.94847,0 -8.96,4.01153 -8.96,8.96c0,4.94847 4.01153,8.96 8.96,8.96c4.94847,0 8.96,-4.01153 8.96,-8.96c0,-4.94847 -4.01153,-8.96 -8.96,-8.96zM112,62.72c-27.16353,0 -49.28,22.11647 -49.28,49.28c0,27.16353 22.11647,49.28 49.28,49.28c27.16353,0 49.28,-22.11647 49.28,-49.28c0,-27.16353 -22.11647,-49.28 -49.28,-49.28zM112,71.68c22.32118,0 40.32,17.99882 40.32,40.32c0,22.32118 -17.99882,40.32 -40.32,40.32c-22.32118,0 -40.32,-17.99882 -40.32,-40.32c0,-22.32118 17.99882,-40.32 40.32,-40.32z"/></g></g></svg>
